<?xml version="1.0" encoding="UTF-8"?>
<svg width="786px" height="79px" viewBox="0 0 786 79" version="1.1" xmlns="http://www.w3.org/2000/svg" xmlns:xlink="http://www.w3.org/1999/xlink">
    <title>Group 10</title>
    <defs>
        <linearGradient x1="38.2970566%" y1="-8.12838979%" x2="95.2168036%" y2="100%" id="linearGradient-1">
            <stop stop-color="#060F25" offset="0.0519012238%"></stop>
            <stop stop-color="#060F26" offset="100%"></stop>
        </linearGradient>
    </defs>
    <g id="Page-1" stroke="none" stroke-width="1" fill="none" fill-rule="evenodd">
        <g id="Group-10" transform="translate(0.000000, 1.417767)">
            <g id="texto" transform="translate(88.000000, 0.000000)">
                <path d="M30.2060624,72 L30.2060624,6.89597839 L54.3334334,6.89597839 L54.3334334,2.21008403 L0.495498199,2.21008403 L0.495498199,6.89597839 L24.722569,6.89597839 L24.722569,72 L30.2060624,72 Z M62.8079232,72 L70.4848139,53.8546218 C71.2274061,52.1837894 71.3650418,52.0685596 72.9092759,52.0606127 L105.946306,52.0606127 C107.49054,52.0685596 107.628176,52.1837894 108.370768,53.8546218 L116.047659,72 L122.029652,72 L92.4187875,2.21008403 L86.4367947,2.21008403 L56.8259304,72 L62.8079232,72 Z M105.678872,47.3741297 L73.1767107,47.3741297 L85.1406963,18.9596639 L89.4277911,8.79027611 L93.714886,18.9596639 L105.678872,47.3741297 Z M138.978631,72 L138.978631,46.1777311 L157.921609,46.1777311 C161.311405,46.1777311 162.308403,46.8756303 163.305402,48.2714286 L179.755882,70.8036014 C180.578406,71.9003001 180.64695,71.9916917 181.804576,72 L187.532473,72 L170.683193,49.0690276 C169.287395,47.1747299 168.390096,45.9783313 167.293397,45.2804322 C180.154682,42.6882353 184.940276,34.3134454 184.940276,23.9446579 C184.940276,9.98667467 177.861585,2.21008403 157.921609,2.21008403 L129.008643,2.21008403 L129.008643,3.20708283 C131.70054,3.20708283 133.495138,5.40048019 133.495138,9.18907563 L133.495138,72 L138.978631,72 Z M159.616507,41.4918367 L138.978631,41.4918367 L138.978631,6.89597839 L159.616507,6.89597839 C172.677191,6.89597839 179.456783,12.4791717 179.456783,23.9446579 C179.456783,35.4101441 172.776891,41.4918367 159.616507,41.4918367 Z M198.00096,72 L205.677851,53.8546218 C206.420443,52.1837894 206.558079,52.0685596 208.102313,52.0606127 L241.139344,52.0606127 C242.683578,52.0685596 242.821213,52.1837894 243.563806,53.8546218 L251.240696,72 L257.222689,72 L227.611825,2.21008403 L221.629832,2.21008403 L192.018968,72 L198.00096,72 Z M240.871909,47.3741297 L208.369748,47.3741297 L220.333733,18.9596639 L224.620828,8.79027611 L228.907923,18.9596639 L240.871909,47.3741297 Z M274.171669,72 L274.171669,51.0630252 L291.020948,33.9146459 L317.142317,70.8036014 C317.873449,71.9003001 318.018153,71.9916917 319.189107,72 L324.719508,72 L294.809544,30.1260504 L322.227011,2.21008403 L316.643818,2.21008403 C315.646819,2.21008403 315.646819,2.21008403 314.94892,2.90798319 L281.35006,37.105042 L274.171669,44.7819328 L274.171669,6.89597839 C274.071969,4.10438175 271.778872,2.21008403 268.688175,2.21008403 L264.201681,2.21008403 L264.201681,3.20708283 C266.893577,3.20708283 268.688175,5.40048019 268.688175,9.18907563 L268.688175,72 L274.171669,72 Z M364.30036,72.4984994 C383.243337,72.4984994 395.406723,64.2234094 395.406723,45.8786315 L395.406723,28.3314526 C395.406723,9.98667467 383.243337,1.71158463 364.30036,1.71158463 C345.357383,1.71158463 333.193998,9.98667467 333.193998,28.3314526 L333.193998,45.8786315 C333.193998,64.2234094 345.357383,72.4984994 364.30036,72.4984994 Z M364.30036,67.812605 C348.14898,67.812605 338.677491,61.232413 338.677491,45.6792317 L338.677491,28.5308523 C338.677491,12.9776711 348.14898,6.39747899 364.30036,6.39747899 C380.451741,6.39747899 389.923229,12.9776711 389.923229,28.5308523 L389.923229,45.6792317 C390.222329,61.232413 380.451741,67.812605 364.30036,67.812605 Z M418.337695,72 L418.337695,22.15006 L417.938896,11.1830732 L460.111945,70.8036014 C460.843077,71.9003001 460.987781,71.9916917 462.158735,72 L467.689136,72 L467.689136,2.21008403 L462.205642,2.21008403 L462.205642,52.060024 L462.704142,64.9213085 L424.120288,10.3854742 C420.032593,4.60288115 417.340696,2.21008403 412.854202,2.21008403 L408.367707,2.21008403 L408.367707,3.20708283 C411.059604,3.20708283 412.854202,5.40048019 412.854202,9.18907563 L412.854202,72 L418.337695,72 Z" id="TARAKON" fill="#171717" fill-rule="nonzero"></path>
                <path d="M527.236364,27.5822329 C528.593939,27.5822329 529.824242,27.4978955 530.927273,27.3292208 C532.030303,27.1605461 533.054545,26.9316305 534,26.6424739 L534,26.6424739 L534,24.0039196 C533.030303,24.3653654 531.981818,24.6304257 530.854545,24.7991004 C529.727273,24.9677751 528.618182,25.0521124 527.527273,25.0521124 C524.569697,25.0521124 522.406061,24.275004 521.036364,22.7207871 C519.666667,21.1665702 518.981818,18.9557269 518.981818,16.088257 C518.981818,14.0159678 519.248485,12.2328353 519.781818,10.7388594 C520.315152,9.2448835 521.2,8.10030518 522.436364,7.30512446 C523.672727,6.50994374 525.345455,6.11235338 527.454545,6.11235338 C528.666667,6.11235338 529.818182,6.21476301 530.909091,6.41958229 C532,6.62440157 533.030303,6.9075341 534,7.26897988 L534,7.26897988 L534,4.66657024 C533.030303,4.32922084 531.993939,4.0641606 530.890909,3.87138952 C529.787879,3.67861844 528.557576,3.58223289 527.2,3.58223289 C524.581818,3.58223289 522.448485,4.09428109 520.8,5.11837747 C519.151515,6.14247386 517.939394,7.59428109 517.163636,9.47379916 C516.387879,11.3533172 516,13.5581365 516,16.088257 C516,18.40151 516.412121,20.4195823 517.236364,22.1424739 C518.060606,23.8653654 519.30303,25.2027148 520.963636,26.154522 C522.624242,27.1063293 524.715152,27.5822329 527.236364,27.5822329 Z M541.051282,26.5822329 L543.492308,20.2608043 L553.54359,20.2608043 L555.984615,26.5822329 L559,26.5822329 L550.241026,3.58223289 L546.794872,3.58223289 L538,26.5822329 L541.051282,26.5822329 Z M553,18.5822329 L544,18.5822329 L548.482072,6.58223289 L553,18.5822329 Z M568.062241,26.5822329 L568.062241,18.2608043 L575.008299,18.2608043 C577.473029,18.2608043 579.421162,17.6119948 580.852697,16.3143758 C582.284232,15.0167567 583,13.2488996 583,11.0108043 C583,8.82032813 582.365145,7.03461385 581.095436,5.65366146 C579.825726,4.27270908 577.846473,3.58223289 575.157676,3.58223289 L575.157676,3.58223289 L565,3.58223289 L565,26.5822329 L568.062241,26.5822329 Z M574.528302,16.5822329 L568,16.5822329 L568,6.58223289 L574.716981,6.58223289 C576.503145,6.58223289 577.830189,7.0254953 578.698113,7.91202013 C579.566038,8.79854495 580,10.0455899 580,11.6531549 C580,13.1661572 579.540881,14.3659208 578.622642,15.2524457 C577.704403,16.1389705 576.339623,16.5822329 574.528302,16.5822329 L574.528302,16.5822329 Z M591,26.5822329 L591,3.58223289 L588,3.58223289 L588,26.5822329 L591,26.5822329 Z M608.027451,26.5822329 L608.027451,5.90366146 L616,5.90366146 L616,3.58223289 L597,3.58223289 L597,5.90366146 L604.972549,5.90366146 L604.972549,26.5822329 L608.027451,26.5822329 Z M620.051282,26.5822329 L622.492308,20.2608043 L632.54359,20.2608043 L634.984615,26.5822329 L638,26.5822329 L629.241026,3.58223289 L625.794872,3.58223289 L617,26.5822329 L620.051282,26.5822329 Z M632,18.5822329 L623,18.5822329 L627.482072,6.58223289 L632,18.5822329 Z M660,26.5822329 L660,24.2965186 L647.087059,24.2965186 L647.087059,3.58223289 L644,3.58223289 L644,26.5822329 L660,26.5822329 Z M519.062241,70.5822329 L519.062241,62.2608043 L526.008299,62.2608043 C528.473029,62.2608043 530.421162,61.6119948 531.852697,60.3143758 C533.284232,59.0167567 534,57.2488996 534,55.0108043 C534,52.8203281 533.365145,51.0346138 532.095436,49.6536615 C530.825726,48.2727091 528.846473,47.5822329 526.157676,47.5822329 L526.157676,47.5822329 L516,47.5822329 L516,70.5822329 L519.062241,70.5822329 Z M525.528302,60.5822329 L519,60.5822329 L519,50.5822329 L525.716981,50.5822329 C527.503145,50.5822329 528.830189,51.0254953 529.698113,51.9120201 C530.566038,52.7985449 531,54.0455899 531,55.6531549 C531,57.1661572 530.540881,58.3659208 529.622642,59.2524457 C528.704403,60.1389705 527.339623,60.5822329 525.528302,60.5822329 L525.528302,60.5822329 Z M539.051282,70.5822329 L541.492308,64.2608043 L551.54359,64.2608043 L553.984615,70.5822329 L557,70.5822329 L548.241026,47.5822329 L544.794872,47.5822329 L536,70.5822329 L539.051282,70.5822329 Z M551,62.5822329 L542,62.5822329 L546.482072,50.5822329 L551,62.5822329 Z M566.062241,70.5822329 L566.062241,61.9036615 L571.141079,61.9036615 C572.311203,61.9036615 573.126556,62.0584234 573.587137,62.3679472 C574.047718,62.677471 574.439834,63.1893758 574.763485,63.9036615 L574.763485,63.9036615 L577.825726,70.5822329 L580.962656,70.5822329 L577.825726,63.6536615 C577.551867,63.0346138 577.284232,62.5405662 577.022822,62.1715186 C576.761411,61.802471 576.381743,61.47509 575.883817,61.1893758 C577.576763,60.8084234 578.852697,60.0584234 579.711618,58.9393758 C580.570539,57.8203281 581,56.4155662 581,54.72509 C581,52.5346138 580.408714,50.7965186 579.226141,49.5108043 C578.043568,48.22509 576.157676,47.5822329 573.568465,47.5822329 L573.568465,47.5822329 L563,47.5822329 L563,70.5822329 L566.062241,70.5822329 Z M572.716981,59.5822329 L566,59.5822329 L566,49.5822329 L573.132075,49.5822329 C576.377358,49.5822329 578,51.2366447 578,54.5454682 C578,56.3101741 577.528302,57.5908113 576.584906,58.38738 C575.641509,59.1839486 574.352201,59.5822329 572.716981,59.5822329 L572.716981,59.5822329 Z M596.027451,70.5822329 L596.027451,49.9036615 L604,49.9036615 L604,47.5822329 L585,47.5822329 L585,49.9036615 L592.972549,49.9036615 L592.972549,70.5822329 L596.027451,70.5822329 Z M612.978967,70.5822329 L612.978967,52.1179472 L626.275335,70.5822329 L629,70.5822329 L629,47.5822329 L626.021033,47.5822329 L626.021033,66.0822329 L612.688337,47.5822329 L610,47.5822329 L610,70.5822329 L612.978967,70.5822329 Z M652,70.5822329 L652,68.2965186 L639.016092,68.2965186 L639.016092,60.22509 L650.675862,60.22509 L650.675862,57.9393758 L639.016092,57.9393758 L639.016092,49.9036615 L652,49.9036615 L652,47.5822329 L636,47.5822329 L636,70.5822329 L652,70.5822329 Z M661.062241,70.5822329 L661.062241,61.9036615 L666.141079,61.9036615 C667.311203,61.9036615 668.126556,62.0584234 668.587137,62.3679472 C669.047718,62.677471 669.439834,63.1893758 669.763485,63.9036615 L669.763485,63.9036615 L672.825726,70.5822329 L675.962656,70.5822329 L672.825726,63.6536615 C672.551867,63.0346138 672.284232,62.5405662 672.022822,62.1715186 C671.761411,61.802471 671.381743,61.47509 670.883817,61.1893758 C672.576763,60.8084234 673.852697,60.0584234 674.711618,58.9393758 C675.570539,57.8203281 676,56.4155662 676,54.72509 C676,52.5346138 675.408714,50.7965186 674.226141,49.5108043 C673.043568,48.22509 671.157676,47.5822329 668.568465,47.5822329 L668.568465,47.5822329 L658,47.5822329 L658,70.5822329 L661.062241,70.5822329 Z M667.716981,59.5822329 L661,59.5822329 L661,49.5822329 L668.132075,49.5822329 C671.377358,49.5822329 673,51.2366447 673,54.5454682 C673,56.3101741 672.528302,57.5908113 671.584906,58.38738 C670.641509,59.1839486 669.352201,59.5822329 667.716981,59.5822329 L667.716981,59.5822329 Z M688.791667,71.5822329 C691.848684,71.5822329 694.147661,71.0219919 695.688596,69.90151 C697.229532,68.7810281 698,67.1966907 698,65.148498 C698,64.0400642 697.776316,63.0521124 697.328947,62.1846425 C696.881579,61.3171727 696.111111,60.5641606 695.017544,59.9256064 C693.923977,59.2870522 692.395468,58.7388594 690.432018,58.2810281 C688.791667,57.8954859 687.511696,57.528016 686.592105,57.1786184 C685.672515,56.8292208 685.020102,56.4075341 684.634868,55.9135582 C684.249635,55.4195823 684.057018,54.775004 684.057018,53.9798233 C684.057018,52.5581365 684.603801,51.5581365 685.697368,50.9798233 C686.790936,50.40151 688.356725,50.1123534 690.394737,50.1123534 C691.513158,50.1123534 692.594298,50.1966907 693.638158,50.3653654 C694.682018,50.5340401 695.651316,50.775004 696.546053,51.088257 L696.546053,51.088257 L696.546053,48.4858474 C695.899854,48.2689799 694.980263,48.0641606 693.787281,47.8713895 C692.594298,47.6786184 691.301901,47.5822329 689.910088,47.5822329 C686.902778,47.5822329 684.665936,48.154522 683.199561,49.2991004 C681.733187,50.4436787 681,52.0039196 681,53.9798233 C681,55.6665702 681.534357,57.0099437 682.60307,58.0099437 C683.671784,59.0099437 685.523392,59.8231967 688.157895,60.4497028 C689.823099,60.8352449 691.152778,61.214763 692.14693,61.588257 C693.141082,61.961751 693.855629,62.4195823 694.29057,62.961751 C694.725512,63.5039196 694.942982,64.2328353 694.942982,65.148498 C694.942982,66.6183775 694.408626,67.6364498 693.339912,68.2027148 C692.271199,68.7689799 690.668129,69.0521124 688.530702,69.0521124 C687.288012,69.0521124 686.076389,68.9497028 684.895833,68.7448835 C683.715278,68.5400642 682.60307,68.2448835 681.559211,67.8593413 L681.559211,67.8593413 L681.559211,70.4978955 C683.398392,71.2207871 685.809211,71.5822329 688.791667,71.5822329 Z" id="CAPITALPARTNERS" fill="#000000" fill-rule="nonzero"></path>
                <line x1="493.218354" y1="1.4024691" x2="493.218354" y2="74.3754421" id="Line" stroke="#DDDDDD" stroke-width="3.62545018" stroke-linecap="square"></line>
            </g>
            <rect id="fondo-icono" fill="url(#linearGradient-1)" x="0.000654095791" y="2.58223289" width="70" height="71"></rect>
            <g id="icono-tarakon" transform="translate(0.000000, 2.582233)" fill="#FFFFFF">
                <path d="M15.6594794,28.6820468 C21.413727,25.7228088 32.8936204,27.0332664 36,29.7945466 C36,29.7945466 27.2979236,27.9275655 19.2915994,32.5650879 C13.1595541,36.1169673 6.97330297,44.7761932 8.19679681,53.2464715 C9.03412931,59.0433452 11.9064551,64.9591844 16.202027,68.0148778 C17.5761313,68.9923592 20.1052667,70.0864545 22.4902121,71.0000812 L12.3681234,71.0004004 C10.0684664,70.1300878 8.52326728,69.0341167 7.11987204,67.8323368 L6.85843403,67.6059555 C6.72839547,67.492175 6.59926562,67.3775315 6.47054077,67.2621236 L6.2134818,67.0303179 L6.2134818,67.0303179 L5.9566073,66.7966489 C5.9137605,66.7575586 5.87088408,66.7183979 5.82795937,66.6791705 L5.56968247,66.4430352 L5.56968247,66.4430352 L5.43982962,66.3244222 C3.46535578,64.5223383 1.43658008,61.4105114 -0.000449676015,58.9589694 L-0.000922135569,57.0794603 C0.588463931,57.3477209 1.30329077,57.5908217 2.14355837,57.8087627 C1.22641231,56.5093286 0.51139633,54.9332736 -0.00148957244,53.0805974 L-0.00118674402,39.3526901 C2.05873293,33.7821006 6.6614462,30.419966 6.6614462,30.419966 C6.05755889,32.6425928 6.05755889,34.5621663 6.6614462,36.1786865 C8.82396998,33.153752 11.8233144,30.6548721 15.6594794,28.6820468 Z M69.9999858,57.1368366 L69.9996785,60.81366 C67.9271726,60.8572399 65.3883668,61.1886941 62.2816853,61.9576068 C54.7477936,64.5802455 47.1192018,71 39.4042745,71 C31.6893472,71 27.0837841,70.6919784 20,63.1384487 C20,63.1384487 26.2220758,67.3426151 34.7015296,67.0715071 C38.4813964,66.9506559 42.7000636,65.467398 47.0328663,63.1384487 C55.7829302,58.4351524 63.4386367,56.434615 69.9999858,57.1368366 Z M14.1135751,44.2492893 C15.1473189,41.2673774 20.2515992,33.835413 30.4586472,35.1466343 C40.6656951,36.4578556 42,46.2397653 42,46.2397653 C37.4827806,41.0856613 31.8808391,38.8021162 23.0893274,42.6140574 C17.2283196,45.1553514 14.8724203,50.9506656 16.0216296,60 C14.3124235,57.0863133 13.331824,54.5893882 13.0798313,52.5092248 C12.7018421,49.3889797 13.0798313,47.2312012 14.1135751,44.2492893 Z M22.5105122,4.28883142 C28.0632162,4.46958189 36.8974048,10.2425887 36.8974048,10.2425887 C37.7086655,9.50242335 32.8177986,5.91104537 32.3714982,5.58608573 L32.3390718,5.56254403 C42.5339323,10.0943045 49.9706405,16.5513194 49.9706405,16.5513194 C47.9318902,13.4891009 47.5492152,2.62332373 48.4746984,6.28081627 C49.4001816,9.93830881 50.2840026,12.7344327 51.423948,12.9218952 C52.5638933,13.1093577 52.4211746,8.32847711 53.6055193,10.0789814 C54.7898641,11.8294857 52.2739717,20.7533147 53.3978618,19.4920625 C54.1471219,18.6512277 55.0527995,18.1453426 56.1148946,17.9744072 C55.3546597,19.3788754 55.5198786,21.2673362 56.6105513,23.6397896 C58.2465604,27.1984696 59.2528544,32.1841337 59.2947004,32.6624353 C59.3365463,33.1407369 58.2462304,34.4958183 57.9644769,35.953442 C57.8297252,36.6505663 58.270702,37.5576831 58.7802617,38.4599677 L59.0619568,38.9503524 C59.5326238,39.7625577 59.9837658,40.5384892 60.0343567,41.1167461 C60.1507158,42.4467369 59.4532768,43.6460322 59.4532768,43.6460322 C59.4532768,43.6460322 57.1003899,44.0310584 55.5103948,43.6384259 C53.9203998,43.2457934 54.8629677,42.4789914 48.4985901,36.4628993 C42.1342124,30.4468071 42.0376899,29.3435507 35.5639986,25.4811243 C31.2482043,22.9061734 27.665569,21.3166978 24.8160925,20.7126975 C17.2369665,19.6746203 9.60487211,19.6887953 1.91980935,20.7552224 C1.28562746,20.8432255 0.645286751,20.963187 -0.00121278677,21.115107 L-0.000441746537,12.7022489 C1.73151554,11.8904789 3.5009325,11.2378425 5.30780913,10.7443397 C19.0632214,6.98739504 27.1685514,8.87966283 29.6078399,9.66765318 L29.7822076,9.7252677 C30.0001711,9.79896381 30.1600266,9.85958251 30.2617574,9.90011059 L30.3271569,9.92663007 C30.3725741,9.94540785 30.3952847,9.95565284 30.3952847,9.95565284 C28.6390756,6.0810727 22.5105122,4.28883142 22.5105122,4.28883142 Z" id="Combined-Shape"></path>
            </g>
        </g>
    </g>
</svg>